<?xml version="1.0" encoding="UTF-8" standalone="no"?><!DOCTYPE svg PUBLIC "-//W3C//DTD SVG 1.1//EN" "http://www.w3.org/Graphics/SVG/1.1/DTD/svg11.dtd"><svg width="100%" height="100%" viewBox="0 0 541 117" version="1.1" xmlns="http://www.w3.org/2000/svg" xmlns:xlink="http://www.w3.org/1999/xlink" xml:space="preserve" xmlns:serif="http://www.serif.com/" style="fill-rule:evenodd;clip-rule:evenodd;stroke-linejoin:round;stroke-miterlimit:1.41421;"><rect id="Page-1" serif:id="Page 1" x="0" y="0" width="540.49" height="116.608" style="fill:none;"/><clipPath id="_clip1"><rect id="Page-11" serif:id="Page 1" x="0" y="0" width="540.49" height="116.608"/></clipPath><g clip-path="url(#_clip1)"><g id="BW-opaque-gradient" serif:id="BW opaque gradient"><path d="M42.426,48.141c-3.218,2.731 -5.609,6.341 -7.168,10.826l0,-13.46l-35.258,0l0,2.634l8.046,0l0,64.37l-8.046,0l0,2.634l41.549,0l0,-2.634l-6.291,0l0,-40.377c0,-5.852 1.193,-10.827 3.584,-14.923c2.389,-4.096 5.144,-6.145 8.266,-6.145c2.048,0 3.461,0.855 4.243,2.561c0.779,1.707 1.17,5.485 1.17,11.338l0,47.546l-5.998,0l0,2.634l41.403,0l0,-2.634l-8.194,0l0,-44.035c0,-16.286 -7.559,-24.432 -22.676,-24.432c-6.535,0 -11.411,1.368 -14.63,4.097Z" style="fill:url(#_Linear2);fill-rule:nonzero;"/><path d="M94.069,53.481c-6.682,6.29 -10.021,15.265 -10.021,26.918c0,11.656 3.12,20.606 9.362,26.846c6.241,6.243 15.458,9.363 27.651,9.363c24.772,0 37.16,-12.435 37.16,-37.306c0,-11.898 -2.977,-20.749 -8.925,-26.553c-5.95,-5.802 -14.972,-8.705 -27.064,-8.705c-12.095,0 -21.484,3.146 -28.163,9.437Zm20.994,56.983c-0.684,-1.366 -1.343,-3.121 -1.975,-5.267c-0.636,-2.145 -0.951,-8.534 -0.951,-19.165l0,-11.412c0,-8.972 0.439,-15.653 1.317,-20.042c0.585,-2.828 1.535,-4.851 2.852,-6.072c1.317,-1.218 3.048,-1.829 5.194,-1.829c3.705,0 6.071,2.172 7.096,6.511c1.023,4.34 1.536,11.242 1.536,20.701l0,12.436c0,10.923 -0.439,17.946 -1.317,21.066c-1.171,4.389 -3.657,6.584 -7.461,6.584c-3.123,0 -5.219,-1.171 -6.291,-3.511Z" style="fill:url(#_Linear3);fill-rule:nonzero;"/><path d="M360.246,22.57l0,89.941l-8.046,0l0,2.634l33.355,0l1.025,-8.631c0.973,3.609 2.801,6.194 5.485,7.753c2.682,1.559 6.559,2.341 11.631,2.341c10.045,0 17.579,-2.926 22.602,-8.778c5.023,-5.852 7.536,-14.97 7.536,-27.357c0,-24.287 -9.121,-36.429 -27.358,-36.429c-8.975,0 -15.313,4.195 -19.019,12.582l0,-39.815l-27.211,5.759Zm29.772,85.407c-1.708,-2.926 -2.561,-6.485 -2.561,-10.68l0,-27.212c0,-6.144 1.121,-10.973 3.364,-14.483c2.244,-3.511 4.778,-5.267 7.609,-5.267c2.827,0 4.729,1.732 5.705,5.194c0.974,3.463 1.463,10.217 1.463,20.262l0,7.608c0,10.729 -0.585,18.238 -1.755,22.529c-1.17,4.293 -3.342,6.437 -6.51,6.437c-3.171,0 -5.611,-1.462 -7.315,-4.388Z" style="fill:url(#_Linear4);fill-rule:nonzero;"/><path d="M466.517,0l-27.213,5.784l0,106.727l-8.046,0l0,2.634l43.451,0l0,-2.634l-8.192,0l0,-112.511Z" style="fill:url(#_Linear5);fill-rule:nonzero;"/><path d="M162.522,27.572l0,67.828c0,8.04 2.144,13.584 6.437,16.633c4.29,3.05 10.483,4.575 18.579,4.575c17.538,0 22.768,-10.237 24.251,-16.67c1.44,2.785 3.267,5.273 5.499,7.453c6.291,6.146 15.726,9.217 28.308,9.217c9.656,0 16.898,-1.848 21.726,-5.545c3.089,-2.364 5.447,-5.513 7.236,-9.213l-2.998,0c-4.003,6.963 -10.268,10.46 -19.087,10.46c-6.049,0 -10.292,-2.308 -12.728,-6.929c-2.439,-4.62 -3.658,-11.458 -3.658,-20.515l0,-5.406l41.256,0c0.878,-21.069 -9.754,-31.604 -31.893,-31.604c-10.923,0 -19.922,2.912 -26.991,8.733c-7.073,5.822 -10.608,14.208 -10.608,25.158c0,5.307 0.747,10.043 2.223,14.221c-0.847,4.984 -4.806,15.095 -13.172,15.095c-6.599,0 -7.169,-5.328 -7.169,-12.613l0,-45.576l19.019,0l0,-3.632l-19.019,0l0,-27.166l-27.211,5.496Zm73.711,42.324c0,-7.114 0.66,-12.128 1.975,-15.04c1.317,-2.91 3.366,-4.366 6.145,-4.366c2.78,0 4.632,1.365 5.559,4.089c0.926,2.727 1.391,7.832 1.391,15.317l0,6.792l-15.07,0l0,-6.792Z" style="fill:url(#_Linear6);fill-rule:nonzero;"/><path d="M481.555,53.261c-7.073,6.144 -10.607,14.995 -10.607,26.553c0,11.558 3.145,20.58 9.436,27.066c6.291,6.487 15.728,9.728 28.31,9.728c9.655,0 16.897,-1.949 21.724,-5.852c3.09,-2.496 5.447,-5.819 7.236,-9.725l-2.998,0c-4.002,7.349 -10.267,11.041 -19.087,11.041c-6.048,0 -10.291,-2.436 -12.727,-7.314c-2.44,-4.877 -3.658,-12.093 -3.658,-21.652l0,-5.706l41.256,0l0.05,-2.772c-0.097,-20.388 -10.745,-30.584 -31.943,-30.584c-10.924,0 -19.922,3.072 -26.992,9.217Zm17.775,14.045c0,-7.51 0.659,-12.802 1.975,-15.874c1.316,-3.072 3.366,-4.608 6.145,-4.608c2.78,0 4.631,1.441 5.559,4.315c0.925,2.879 1.39,8.266 1.39,16.167l0,7.169l-15.069,0l0,-7.169Z" style="fill:url(#_Linear7);fill-rule:nonzero;"/><path d="M281.793,65.456c0,7.59 4.192,11.383 12.581,11.383c3.706,0 6.778,-0.981 9.217,-2.948c2.436,-1.965 3.657,-4.296 3.657,-6.995c0,-2.694 -0.39,-5.004 -1.171,-6.925l-3.656,0c-0.585,-1.553 -0.878,-3.085 -0.878,-4.593c0,-1.509 0.706,-2.696 2.121,-3.566c1.413,-0.868 2.999,-1.303 4.755,-1.303c2.926,0 4.901,1.487 5.925,4.457c1.024,2.973 1.535,8.8 1.535,17.485l0,10.559l-4.241,0c-11.412,0 -19.875,1.212 -25.384,3.633c-5.511,2.425 -8.265,6.882 -8.265,13.372c0,11.063 7.217,16.593 21.652,16.593c4.876,0 8.581,-0.824 11.118,-2.469c2.535,-1.645 4.438,-4.204 5.706,-7.679c1.756,6.767 8.485,10.148 20.19,10.148c6.437,0 11.067,-1.509 13.898,-4.525c1.983,-2.117 3.365,-5.542 4.149,-10.174l-2.287,0c-0.965,5.038 -2.657,7.568 -5.082,7.568c-2.829,0 -4.241,-2.377 -4.241,-7.13l0,-27.839c0,-9.873 -2.22,-16.663 -6.658,-20.365c-4.438,-3.702 -12.459,-5.554 -24.065,-5.554c-20.386,0 -30.576,5.623 -30.576,16.867Zm24.797,43.61c-0.537,-1.372 -0.804,-4.434 -0.804,-9.188l0,-2.194c0,-8.319 3.022,-12.48 9.07,-12.48l1.023,0l0,12.753c0,4.114 -0.658,7.337 -1.973,9.668c-1.318,2.332 -2.733,3.497 -4.244,3.497c-1.513,0 -2.537,-0.685 -3.072,-2.056Z" style="fill:url(#_Linear8);fill-rule:nonzero;"/></g></g><defs><linearGradient id="_Linear2" x1="0" y1="0" x2="1" y2="0" gradientUnits="userSpaceOnUse" gradientTransform="matrix(539.008,-9.24769,9.24769,539.008,-3.59602,80.8965)"><stop offset="0" style="stop-color:#b0a5b8;stop-opacity:1"/><stop offset="0.1" style="stop-color:#b0a5b8;stop-opacity:1"/><stop offset="0.84" style="stop-color:#391d4d;stop-opacity:1"/><stop offset="1" style="stop-color:#391d4d;stop-opacity:1"/></linearGradient><linearGradient id="_Linear3" x1="0" y1="0" x2="1" y2="0" gradientUnits="userSpaceOnUse" gradientTransform="matrix(539.008,-9.24769,9.24769,539.008,-3.56894,82.4746)"><stop offset="0" style="stop-color:#b0a5b8;stop-opacity:1"/><stop offset="0.1" style="stop-color:#b0a5b8;stop-opacity:1"/><stop offset="0.84" style="stop-color:#391d4d;stop-opacity:1"/><stop offset="1" style="stop-color:#391d4d;stop-opacity:1"/></linearGradient><linearGradient id="_Linear4" x1="0" y1="0" x2="1" y2="0" gradientUnits="userSpaceOnUse" gradientTransform="matrix(539.008,-9.24769,9.24769,539.008,-3.72183,73.5637)"><stop offset="0" style="stop-color:#b0a5b8;stop-opacity:1"/><stop offset="0.1" style="stop-color:#b0a5b8;stop-opacity:1"/><stop offset="0.84" style="stop-color:#391d4d;stop-opacity:1"/><stop offset="1" style="stop-color:#391d4d;stop-opacity:1"/></linearGradient><linearGradient id="_Linear5" x1="0" y1="0" x2="1" y2="0" gradientUnits="userSpaceOnUse" gradientTransform="matrix(539.008,-9.24769,9.24769,539.008,-3.85652,65.713)"><stop offset="0" style="stop-color:#b0a5b8;stop-opacity:1"/><stop offset="0.1" style="stop-color:#b0a5b8;stop-opacity:1"/><stop offset="0.84" style="stop-color:#391d4d;stop-opacity:1"/><stop offset="1" style="stop-color:#391d4d;stop-opacity:1"/></linearGradient><linearGradient id="_Linear6" x1="0" y1="0" x2="1" y2="0" gradientUnits="userSpaceOnUse" gradientTransform="matrix(538.919,-9.24616,9.24616,538.919,-3.72105,73.146)"><stop offset="0" style="stop-color:#b0a5b8;stop-opacity:1"/><stop offset="0.1" style="stop-color:#b0a5b8;stop-opacity:1"/><stop offset="0.84" style="stop-color:#391d4d;stop-opacity:1"/><stop offset="1" style="stop-color:#391d4d;stop-opacity:1"/></linearGradient><linearGradient id="_Linear7" x1="0" y1="0" x2="1" y2="0" gradientUnits="userSpaceOnUse" gradientTransform="matrix(539.008,-9.24769,9.24769,539.008,-3.45506,89.1125)"><stop offset="0" style="stop-color:#b0a5b8;stop-opacity:1"/><stop offset="0.1" style="stop-color:#b0a5b8;stop-opacity:1"/><stop offset="0.84" style="stop-color:#391d4d;stop-opacity:1"/><stop offset="1" style="stop-color:#391d4d;stop-opacity:1"/></linearGradient><linearGradient id="_Linear8" x1="0" y1="0" x2="1" y2="0" gradientUnits="userSpaceOnUse" gradientTransform="matrix(539.02,-9.24789,9.24789,539.02,-3.92793,88.2286)"><stop offset="0" style="stop-color:#b0a5b8;stop-opacity:1"/><stop offset="0.1" style="stop-color:#b0a5b8;stop-opacity:1"/><stop offset="0.84" style="stop-color:#391d4d;stop-opacity:1"/><stop offset="1" style="stop-color:#391d4d;stop-opacity:1"/></linearGradient></defs></svg>