<svg xmlns="http://www.w3.org/2000/svg" xmlns:xlink="http://www.w3.org/1999/xlink" viewBox="0 0 16 16">
    <defs>
        <path id="a"
              d="M7.7 2.1c-.5.5-.9 1.1-1.2 1.9V1.7h-6v.5h1.4v11H.5v.5h7.1v-.5H6.5V6.3c0-1 .2-1.9.6-2.6.4-.7.9-1.1 1.4-1.1.4 0 .6.1.7.4.2.4.3 1 .3 2v8.2h-1v.5h7.1v-.5h-1.4V5.6c0-2.8-1.3-4.2-3.9-4.2-1.2 0-2 .3-2.6.7z"/>
    </defs>
    <use xlink:href="#a" overflow="visible" fill="#f4f2ed"/>
    <clipPath id="b">
        <use xlink:href="#a" overflow="visible"/>
    </clipPath>
    <g clip-path="url(#b)">
        <defs>
            <path id="c" d="M.5-6.1h92.8v20.4H.5z"/>
        </defs>
        <use xlink:href="#c" overflow="visible" fill="#f4f2ed"/>
        <clipPath id="d">
            <use xlink:href="#c" overflow="visible"/>
        </clipPath>
    </g>
</svg>