<?xml version="1.0" encoding="UTF-8"?>
<svg width="21px" height="19px" viewBox="0 0 21 19" version="1.1" xmlns="http://www.w3.org/2000/svg" xmlns:xlink="http://www.w3.org/1999/xlink">
    <g id="Page-1" stroke="none" stroke-width="1" fill="none" fill-rule="evenodd">
        <g id="Group" transform="translate(0.000000, 1.000000)" stroke="#391D4D">
            <g id="Buttons-&amp;-Form-elements-/-Checkmark-checked-Copy-2" stroke-width="2">
                <path d="M14.0052166,1 L3.9947834,1 C3.16866809,1 2.41983168,1.33566791 1.87756319,1.87793641 C1.33571081,2.41978879 1,3.16812176 1,3.9947834 L1,14.0052166 C1,14.831128 1.33632271,15.5796981 1.8793998,16.1218047 C2.42270819,16.6641422 3.17309449,17 4.00193497,17 L14.0078793,17 C14.8333942,17 15.5814315,16.6644991 16.1230804,16.1224889 C16.6646553,15.5805528 17,14.832033 17,14.0052166 L17,3.9947834 C17,3.16866809 16.6643321,2.41983168 16.1220636,1.87756319 C15.5802112,1.33571081 14.8318782,1 14.0052166,1 Z" id="Rectangle-277-Copy-6"></path>
            </g>
            <polyline id="Path-18" stroke-width="3" points="5 6.23402807 9.84150852 11 20 1"></polyline>
        </g>
    </g>
</svg>