<svg xmlns="http://www.w3.org/2000/svg" width="23.496" height="22" viewBox="0 0 23.496 22">
  <path id="Fill_1" data-name="Fill 1" d="M5.14,22a.729.729,0,0,1-.43-.139.738.738,0,0,1-.3-.669l.7-7L.215,9.3A.734.734,0,0,1,.59,8.063L7.6,6.661,11.107.349a.764.764,0,0,1,1.283,0L15.9,6.661l7.01,1.4A.734.734,0,0,1,23.281,9.3L18.388,14.2l.7,7a.732.732,0,0,1-.731.807.73.73,0,0,1-.3-.063l-6.31-2.8-6.311,2.8A.728.728,0,0,1,5.14,22Zm6.609-4.406a.73.73,0,0,1,.3.063L17.5,20.082,16.892,14A.733.733,0,0,1,17.1,13.4l4.17-4.17-6-1.2a.732.732,0,0,1-.5-.364L11.749,2.218,8.718,7.671a.731.731,0,0,1-.5.364l-6,1.2,4.17,4.17A.739.739,0,0,1,6.605,14L6,20.082l5.454-2.425A.732.732,0,0,1,11.749,17.594Z" transform="translate(0 0)" fill="#f5f4ef"/>
</svg>
