<svg id="Group_9" data-name="Group 9" xmlns="http://www.w3.org/2000/svg" width="22.857" height="20" viewBox="0 0 22.857 20">
  <g id="Group_7" data-name="Group 7">
    <path id="Fill_1" data-name="Fill 1" d="M0,1.429H12.857V0H0Z" transform="translate(10 2.143)" fill="#f5f4ef"/>
    <path id="Fill_2" data-name="Fill 2" d="M8.572,5.714H4.286V3.571H0V2.143H4.286V0H8.572V5.713ZM5.714,1.428V4.286H7.143V1.428Z" transform="translate(0 0)" fill="#f5f4ef"/>
    <path id="Fill_3" data-name="Fill 3" d="M0,1.429H4.286V0H0Z" transform="translate(18.571 9.286)" fill="#f5f4ef"/>
    <path id="Fill_4" data-name="Fill 4" d="M17.143,5.714H12.857V3.571H0V2.143H12.857V0h4.286V5.713ZM14.286,1.428V4.286h1.428V1.428Z" transform="translate(0 7.143)" fill="#f5f4ef"/>
    <path id="Fill_5" data-name="Fill 5" d="M0,1.429H10V0H0Z" transform="translate(12.857 16.429)" fill="#f5f4ef"/>
    <path id="Fill_6" data-name="Fill 6" d="M11.428,5.714H7.143V3.571H0V2.143H7.143V0h4.285V5.713ZM8.572,1.428V4.286H10V1.428Z" transform="translate(0 14.286)" fill="#f5f4ef"/>
  </g>
</svg>
