<svg id="Group_8" data-name="Group 8" xmlns="http://www.w3.org/2000/svg" xmlns:xlink="http://www.w3.org/1999/xlink" width="27.003" height="20" viewBox="0 0 27.003 20">
  <defs>
    <clipPath id="clip-path">
      <path id="Clip_2" data-name="Clip 2" d="M0,0H27V20H0Z" transform="translate(0 0)" fill="none"/>
    </clipPath>
  </defs>
  <g id="Group_3" data-name="Group 3">
    <g id="Group_3-2" data-name="Group 3" clip-path="url(#clip-path)">
      <path id="Fill_1" data-name="Fill 1" d="M13.5,20C5.632,20,.522,12.45.309,12.128L0,11.667.309,11.2A21.305,21.305,0,0,1,6.222,5.565L3.951,3.294,5.129,2.116,7.74,4.726a13.359,13.359,0,0,1,4.928-1.344V0h1.667V3.382a13.359,13.359,0,0,1,4.928,1.344l2.612-2.612,1.179,1.179L20.782,5.565A21.307,21.307,0,0,1,26.695,11.2l.309.463-.309.462a21.2,21.2,0,0,1-3.73,4.057,17.67,17.67,0,0,1-4.117,2.63A13.005,13.005,0,0,1,13.5,20Zm0-15C7.6,5,3.231,10.1,2.034,11.667c1.2,1.563,5.559,6.666,11.468,6.666s10.271-5.1,11.468-6.666C23.773,10.1,19.41,5,13.5,5Z" transform="translate(0 0)" fill="#f5f4ef"/>
    </g>
  </g>
  <path id="Fill_4" data-name="Fill 4" d="M5,10a5,5,0,1,1,5-5A5.006,5.006,0,0,1,5,10ZM5,1.667A3.333,3.333,0,1,0,8.333,5,3.337,3.337,0,0,0,5,1.667Z" transform="translate(8.502 6.667)" fill="#f5f4ef"/>
  <path id="Fill_6" data-name="Fill 6" d="M1.667,0A1.667,1.667,0,1,0,3.333,1.667,1.669,1.669,0,0,0,1.667,0" transform="translate(11.835 10)" fill="#f5f4ef"/>
</svg>
