<svg width="64px" height="18px" viewBox="0 0 64 18" version="1.1" xmlns="http://www.w3.org/2000/svg" xmlns:xlink="http://www.w3.org/1999/xlink">
    <g id="Quick-tasting" stroke="none" stroke-width="1" fill="none" fill-rule="evenodd">
        <g id="8-copy-4" transform="translate(-280.000000, -397.000000)" fill="#391D4D">
            <text id="Find" font-family="Raleway-SemiBold, Raleway" font-size="18" font-weight="500">
                <tspan x="307" y="413">Find</tspan>
            </text>
            <g id="crosshair" transform="translate(280.000000, 396.784698)" fill-rule="nonzero">
                <path d="M9,0.215302175 C4.05,0.215302175 0,4.26530218 0,9.21530218 C0,14.1653022 4.05,18.2153022 9,18.2153022 C13.95,18.2153022 18,14.1653022 18,9.21530218 C18,4.26530218 13.95,0.215302175 9,0.215302175 Z M10.125,15.8528022 L10.125,13.7153022 L7.875,13.7153022 L7.875,15.8528022 C5.0625,15.4028022 2.8125,13.1528022 2.3625,10.3403022 L4.5,10.3403022 L4.5,8.09030218 L2.3625,8.09030218 C2.8125,5.27780218 5.0625,3.02780218 7.875,2.57780218 L7.875,4.71530218 L10.125,4.71530218 L10.125,2.57780218 C12.9375,3.02780218 15.1875,5.27780218 15.6375,8.09030218 L13.5,8.09030218 L13.5,10.3403022 L15.6375,10.3403022 C15.1875,13.1528022 12.9375,15.4028022 10.125,15.8528022 Z" id="Shape"></path>
                <circle id="Oval" cx="9" cy="9.21530218" r="2"></circle>
            </g>
        </g>
    </g>
</svg>